<svg xmlns="http://www.w3.org/2000/svg" width="25.003" height="37.931" viewBox="0 0 25.003 37.931"><g transform="translate(-723 -181)"><path d="M314.777,85.253V85.5a3.508,3.508,0,0,1-.621-1.929.406.406,0,0,1,.116-.027,4.994,4.994,0,0,0,3.2-1.048c.237-.165.46-.349.69-.524.048-.037.1-.071.153-.111a2.469,2.469,0,0,0,.221.345c.092.1.217.176.253.337-.262.252-.529.5-.79.76a5.648,5.648,0,0,0-.92,1.109,2.146,2.146,0,0,0-.294,1.1,3.792,3.792,0,0,0,.526,2.1c-.1.149-.255.292-.164.509.071.168.143.336.223.523a2.5,2.5,0,0,1-.757-.537,5.969,5.969,0,0,1-1.656-2.515c-.039-.115-.094-.224-.142-.336Z" transform="translate(422.168 100.763)" fill="#066523"/><g transform="translate(723 181)"><path d="M74.721,52.513l-.043.219c.039,0,.07.005.085-.007.186-.145.366-.3.556-.44a5.5,5.5,0,0,1,.627-.424.728.728,0,0,1,.384-.057c.349.026.7.073,1.046.114a.385.385,0,0,1,.09.044l-.413.426.026.036c.059-.028.121-.051.177-.084.489-.292.97-.6,1.467-.874a2.247,2.247,0,0,1,1.947-.206,2.479,2.479,0,0,1,.413.222c.037.022.053.079.1.152a1.393,1.393,0,0,1-.208,0,1.937,1.937,0,0,0-1.652.483,13.756,13.756,0,0,1-1.887,1.419,4.426,4.426,0,0,1-2.524.682c-.276-.017-.419.048-.388.4a3.941,3.941,0,0,0,.188.894,8.437,8.437,0,0,0,1.482,2.673,6.844,6.844,0,0,0,1.9,1.682c.174.1.359.177.537.267.081.041.158.09.237.135l-.02.066a2.653,2.653,0,0,1-.292-.035,5.4,5.4,0,0,1-2.1-1.054,13.418,13.418,0,0,1-2.77-3.041,8.568,8.568,0,0,1-.811-1.647,1.391,1.391,0,0,0-.174-.312,10.011,10.011,0,0,0,.348,1.4c-.467-.038-.9-.1-1.333-.1a4.339,4.339,0,0,0-2.078.481,2.754,2.754,0,0,0-1.383,1.676,7.277,7.277,0,0,0-.269,2.393c0,.021.021.04.061.113a14.657,14.657,0,0,1,.339-1.77,1.24,1.24,0,0,1,.114.166c.119.273.221.553.352.819a4.67,4.67,0,0,0,1.466,1.66,15.353,15.353,0,0,0,2.905,1.619c1.5.674,3,1.348,4.489,2.055a27.384,27.384,0,0,1,3.86,2.186,8.657,8.657,0,0,1,3.757,7.974,11.432,11.432,0,0,1-.966,3.77,13.958,13.958,0,0,1-1.952,3.167,11.909,11.909,0,0,1-5.719,3.707,13.669,13.669,0,0,1-3.554.655,12.4,12.4,0,0,1-4.662-.6,10.8,10.8,0,0,1-3.452-1.909,10.043,10.043,0,0,1-2.813-3.623,8.657,8.657,0,0,1-.786-3.085,7.47,7.47,0,0,1,.495-3.247,7.115,7.115,0,0,1,1.724-2.548,8.583,8.583,0,0,1,4.1-2.121c.766-.18,1.539-.341,2.317-.457a10.042,10.042,0,0,1,2.6-.093c.391.044.779.114,1.171.154a1.907,1.907,0,0,1,.962.443,20.462,20.462,0,0,1,2.488,2.184,12.118,12.118,0,0,1,1.846,2.417c.028.049.045.1.085.2a20.928,20.928,0,0,0-2.87-.647c-.972-.148-1.949-.22-2.931-.276s-1.931.045-2.9.084a2.087,2.087,0,0,1,.658-.413c.239-.127.49-.233.736-.348a4.29,4.29,0,0,0,.691-.374,1.807,1.807,0,0,0-.245.023,12.478,12.478,0,0,0-4.073,1.635,4.809,4.809,0,0,0-1.111.959,2.514,2.514,0,0,0-.483,2.4,4.566,4.566,0,0,0,1.494,2.272,5.806,5.806,0,0,0,2.689,1.3,8.212,8.212,0,0,0,2.357.1,9.133,9.133,0,0,0,2.641-.651A7.056,7.056,0,0,0,78.434,78.3a6.49,6.49,0,0,0,1.294-2.086,4.435,4.435,0,0,0,.315-1.507,4.33,4.33,0,0,0-.873-2.672,10.967,10.967,0,0,0-1.736-1.863,32.979,32.979,0,0,0-3.979-2.88c-1.529-.989-3.066-1.965-4.523-3.061a16.426,16.426,0,0,1-2.208-1.907,7.112,7.112,0,0,1-1.654-2.682,4.393,4.393,0,0,1,.226-3.323,6.778,6.778,0,0,1,2.3-2.747,5.792,5.792,0,0,1,2.084-.827,11.919,11.919,0,0,1,2.346-.275c.333,0,.667-.04,1-.033s.646.055.969.072C74.227,52.522,74.455,52.513,74.721,52.513Zm1.821-.346a.721.721,0,0,0-.911.516A1.019,1.019,0,0,0,76.542,52.167Z" transform="translate(-61.41 -51.124)" fill="#318f7d"/><path d="M158.992,521.956c.051-.12.125-.114.219-.077.244.1.491.183.737.274a15.533,15.533,0,0,0,2.541.637,11.8,11.8,0,0,0,2.62.157,12.668,12.668,0,0,0,2.615-.409,13.312,13.312,0,0,0,3.512-1.415,11.48,11.48,0,0,0,1.656-1.2c.511-.44,1.012-.9,1.484-1.377a6.7,6.7,0,0,0,1.344-1.8,2.177,2.177,0,0,1,.317-.416,10.366,10.366,0,0,0,1.71-2.995,12.6,12.6,0,0,0,.7-2.874c.018-.146.053-.29.081-.435,0,0,.014-.007.056-.027a2.327,2.327,0,0,1,.058.266c.073.741.169,1.482.205,2.225a8.55,8.55,0,0,1-.266,2.4,10.169,10.169,0,0,1-2.193,4.31,12.327,12.327,0,0,1-4.124,3.112,14.6,14.6,0,0,1-3.841,1.214,13.406,13.406,0,0,1-2.854.216,20.841,20.841,0,0,1-2.945-.347,12.366,12.366,0,0,1-3.083-1.011A1.173,1.173,0,0,1,158.992,521.956Z" transform="translate(-153.85 -485.81)" fill="#318f7d"/><path d="M399.371,67.289a3.308,3.308,0,0,1-.122,1.874,1.633,1.633,0,0,1-.226.381.991.991,0,0,1-.21.164l-.044-.031c.023-.161.06-.321.067-.482a3.513,3.513,0,0,0-.018-.545c-.011-.1,0-.253-.191-.183-.107-.114-.216-.226-.318-.344-.016-.018,0-.067,0-.1A1.246,1.246,0,0,1,399.371,67.289Z" transform="translate(-380.548 -66.435)" fill="#318f7d"/><path d="M423.542,67.435a1.263,1.263,0,0,1,.022-.155,2.7,2.7,0,0,0,.108-.376.645.645,0,0,0-.107-.59.544.544,0,0,1-.156-.481.689.689,0,0,1,.641-.483.163.163,0,0,1,.17.164,2.658,2.658,0,0,1-.243,1.5A.929.929,0,0,1,423.542,67.435Z" transform="translate(-404.323 -64.6)" fill="#318f7d"/><path d="M375.608,175.981l.116.078a4.5,4.5,0,0,0,.336-.545,4.68,4.68,0,0,0,.184-.631.458.458,0,0,1,.2.346,2.977,2.977,0,0,1,.042.727,2.71,2.71,0,0,1-.259.919A.772.772,0,0,1,375.608,175.981Z" transform="translate(-359.031 -168.362)" fill="#318f7d"/><path d="M392.737,191.5a.663.663,0,0,1-.423-.262.239.239,0,0,1,.006-.354.332.332,0,0,1,.034-.04,1.04,1.04,0,0,0,.3-.933.427.427,0,0,1,.016-.1.486.486,0,0,1,.279.382,1.842,1.842,0,0,1-.159,1.269C392.787,191.48,392.765,191.486,392.737,191.5Z" transform="translate(-374.805 -182.506)" fill="#318f7d"/></g></g></svg>